<?xml version="1.0" encoding="utf-8"?>
<!-- Generator: Adobe Illustrator 20.0.0, SVG Export Plug-In . SVG Version: 6.00 Build 0)  -->
<svg version="1.1" id="Layer_1" xmlns="http://www.w3.org/2000/svg" xmlns:xlink="http://www.w3.org/1999/xlink" x="0px" y="0px"
	 viewBox="0 0 1440 864" style="enable-background:new 0 0 1440 864;" xml:space="preserve">
<style type="text/css">
	.st0{fill:#010101;}
</style>
<path class="0" d="M721.6,418.8l13.4,13.4c10.1,10.1,26.4,10.1,36.5,0c0,0,0,0,0,0l39.5-39.5c2.6-2.6,6.9-2.6,9.5,0c0,0,0,0,0,0
	c1.6,1.6,2.3,4,1.8,6.2c-4,19.3,8.3,38.2,27.6,42.2s38.2-8.3,42.2-27.6c4-19.3-8.3-38.2-27.6-42.2c-4.8-1-9.8-1-14.7,0
	c-2.2,0.5-4.6-0.2-6.2-1.8c-2.6-2.6-2.6-6.9,0-9.5c0,0,0,0,0,0l40.1-39.6c10.1-10.1,10.1-26.4,0-36.5c0,0,0,0,0,0l-39.5-39.5
	c-2.6-2.6-2.6-6.9,0-9.5c0,0,0,0,0,0c1.6-1.6,4-2.3,6.2-1.8c19.3,4.1,38.2-8.2,42.3-27.5c4.1-19.3-8.2-38.2-27.5-42.3
	c-19.3-4.1-38.2,8.2-42.3,27.5c-1,4.8-1,9.8,0,14.7c0.5,2.2-0.2,4.6-1.8,6.2l0,0c-2.6,2.6-6.9,2.6-9.5,0c0,0,0,0,0,0l-40.1-40
	c-10.1-10.1-26.4-10.1-36.5,0c0,0,0,0,0,0l-39.6,39.6c-2.6,2.6-6.9,2.6-9.5,0c0,0,0,0,0,0c-1.6-1.6-2.3-4-1.8-6.2
	c4-19.3-8.3-38.2-27.6-42.2c-19.3-4-38.2,8.3-42.2,27.6c-4,19.3,8.3,38.2,27.6,42.2c4.8,1,9.8,1,14.7,0c2.2-0.5,4.6,0.2,6.2,1.8
	c2.6,2.6,2.6,6.9,0,9.5c0,0,0,0,0,0l-40.1,39.7c-10.1,10-10.3,26.3-0.3,36.5c0.1,0.1,0.2,0.2,0.3,0.3l13.3,13.3
	c5-8.2,11.7-15.1,19.7-20.3c20.4-13.3,46.8-13.3,67.2,0c28.9,18.5,37.3,56.9,18.8,85.8c-5.2,8.1-12.2,14.9-20.4,19.8L721.6,418.8z"
	/>
<path class="1" d="M488.9,538.5c-19.3-4-38.2,8.3-42.2,27.6c-4,19.3,8.3,38.2,27.6,42.2c19.3,4,38.2-8.3,42.2-27.6
	c1-4.8,1-9.8,0-14.7c-0.5-2.2,0.2-4.6,1.8-6.2c2.6-2.6,6.9-2.6,9.5,0c0,0,0,0,0,0l39.6,40.1c10,10.1,26.3,10.3,36.5,0.3
	c0.1-0.1,0.2-0.2,0.3-0.3l13.3-13.3c-8.2-5-15.1-11.7-20.3-19.7c-13.3-20.4-13.3-46.8,0-67.2c18.5-28.9,56.9-37.3,85.8-18.8
	c8.1,5.2,14.9,12.2,19.8,20.4l13.2-13.7c10.1-10.1,10.1-26.4,0-36.5c0,0,0,0,0,0l-39.7-39.5c-2.6-2.6-2.6-6.9,0-9.5c0,0,0,0,0,0
	c1.6-1.6,4-2.3,6.2-1.8c19.3,4,38.2-8.3,42.2-27.6c4-19.3-8.3-38.2-27.6-42.2s-38.2,8.3-42.2,27.6c-1,4.8-1,9.8,0,14.7
	c0.5,2.2-0.2,4.6-1.8,6.2c-2.6,2.6-6.9,2.6-9.5,0c0,0,0,0,0,0L604.1,339c-10.1-10.1-26.4-10.1-36.5,0c0,0,0,0,0,0l-39.5,39.5
	c-2.6,2.6-6.9,2.6-9.5,0c0,0,0,0,0,0c-1.6-1.6-2.3-4-1.8-6.2c4.1-19.3-8.2-38.2-27.5-42.3c-19.3-4.1-38.2,8.2-42.3,27.5
	c-4.1,19.3,8.2,38.2,27.5,42.3c4.8,1,9.8,1,14.7,0c2.2-0.5,4.6,0.2,6.2,1.8l0,0c2.6,2.6,2.6,6.9,0,9.5c0,0,0,0,0,0l-40,40.1
	c-10.1,10.1-10.1,26.4,0,36.5c0,0,0,0,0,0l39.6,39.6c2.6,2.6,2.6,6.9,0,9.5c0,0,0,0,0,0C493.4,538.3,491.1,539,488.9,538.5z"/>
<path class="2" d="M909.6,372.3c13.3,20.4,13.3,46.8,0,67.2c-18.5,28.9-56.9,37.3-85.8,18.8c-8.1-5.2-14.9-12.2-19.8-20.4
	l-13.5,13.4c-10.1,10.1-10.1,26.4,0,36.5c0,0,0,0,0,0l39.5,39.5c2.6,2.6,2.6,6.9,0,9.5c0,0,0,0,0,0c-1.6,1.6-4,2.3-6.2,1.8
	c-19.3-4-38.2,8.3-42.2,27.6c-4,19.3,8.3,38.2,27.6,42.2c19.3,4,38.2-8.3,42.2-27.6c1-4.8,1-9.8,0-14.7c-0.5-2.2,0.2-4.6,1.8-6.2
	c2.6-2.6,6.9-2.6,9.5,0c0,0,0,0,0,0l39.6,40.1c10.1,10.1,26.4,10.1,36.5,0c0,0,0,0,0,0l39.5-39.5c2.6-2.6,6.9-2.6,9.5,0c0,0,0,0,0,0
	c1.6,1.6,2.3,4,1.8,6.2c-4.1,19.3,8.2,38.2,27.5,42.3c19.3,4.1,38.2-8.2,42.3-27.5c4.1-19.3-8.2-38.2-27.5-42.3c-4.8-1-9.8-1-14.7,0
	c-2.2,0.5-4.6-0.2-6.2-1.8l0,0c-2.6-2.6-2.6-6.9,0-9.5c0,0,0,0,0,0l39.5-39.5c10.1-10.1,10.1-26.4,0-36.5c0,0,0,0,0,0l-39.1-40.1
	c-2.6-2.6-2.6-6.9,0-9.5c0,0,0,0,0,0c1.6-1.6,4-2.3,6.2-1.8c19.3,4,38.2-8.3,42.2-27.6c4-19.3-8.3-38.2-27.6-42.2
	c-19.3-4-38.2,8.3-42.2,27.6c-1,4.8-1,9.8,0,14.7c0.5,2.2-0.2,4.6-1.8,6.2c-2.6,2.6-6.9,2.6-9.5,0c0,0,0,0,0,0L939,339
	c-10-10.1-26.3-10.3-36.5-0.3c-0.1,0.1-0.2,0.2-0.3,0.3l-13,13.6C897.4,357.5,904.4,364.3,909.6,372.3z"/>
<path class="3" d="M656.6,706.1c-19.3-4.1-38.2,8.2-42.3,27.5c-4.1,19.3,8.2,38.2,27.5,42.3c19.3,4.1,38.2-8.2,42.3-27.5
	c1-4.8,1-9.8,0-14.7c-0.5-2.2,0.2-4.6,1.8-6.2l0,0c2.6-2.6,6.9-2.6,9.5,0c0,0,0,0,0,0l39.5,39.5c10.1,10.1,26.4,10.1,36.5,0
	c0,0,0,0,0,0l39.5-39.5c2.6-2.6,6.9-2.6,9.5,0c0,0,0,0,0,0c1.6,1.6,2.3,4,1.8,6.2c-4,19.3,8.3,38.2,27.6,42.2
	c19.3,4,38.2-8.3,42.2-27.6s-8.3-38.2-27.6-42.2c-4.8-1-9.8-1-14.7,0c-2.2,0.5-4.6-0.2-6.2-1.8c-2.6-2.6-2.6-6.9,0-9.5c0,0,0,0,0,0
	l40.1-39.6c10.1-10,10.3-26.3,0.3-36.5c-0.1-0.1-0.2-0.2-0.3-0.3l-13.6-13c-4.9,8.2-11.7,15.1-19.7,20.3
	c-20.4,13.3-46.8,13.3-67.2,0c-28.9-18.5-37.3-56.9-18.8-85.8c5.2-8.1,12.2-14.9,20.4-19.8l-13.4-13.5c-10.1-10.1-26.4-10.1-36.5,0
	c0,0,0,0,0,0l-39.5,39.7c-2.6,2.6-6.9,2.6-9.5,0c0,0,0,0,0,0c-1.6-1.6-2.3-4-1.8-6.2c4-19.3-8.3-38.2-27.6-42.2
	c-19.3-4-38.2,8.3-42.2,27.6c-4,19.3,8.3,38.2,27.6,42.2c4.8,1,9.8,1,14.7,0c2.2-0.5,4.6,0.2,6.2,1.8c2.6,2.6,2.6,6.9,0,9.5
	c0,0,0,0,0,0l-40.1,39.4c-10.1,10.1-10.1,26.4,0,36.5c0,0,0,0,0,0l39.5,39.5c2.6,2.6,2.6,6.9,0,9.5c0,0,0,0,0,0
	C660.8,705.6,658.7,706.4,656.6,706.1z"/>
</svg>
